<svg width="233" height="54" viewBox="0 0 233 54" fill="none" xmlns="http://www.w3.org/2000/svg">
<path d="M63.512 50V16.4H79.256C83.288 16.4 86.36 17.2 88.472 18.8C90.584 20.368 91.64 22.48 91.64 25.136C91.64 26.928 91.224 28.464 90.392 29.744C89.56 30.992 88.44 31.968 87.032 32.672C85.656 33.344 84.152 33.68 82.52 33.68L83.384 31.952C85.272 31.952 86.968 32.304 88.472 33.008C89.976 33.68 91.16 34.672 92.024 35.984C92.92 37.296 93.368 38.928 93.368 40.88C93.368 43.76 92.264 46 90.056 47.6C87.848 49.2 84.568 50 80.216 50H63.512ZM69.752 45.104H79.832C82.168 45.104 83.96 44.72 85.208 43.952C86.456 43.184 87.08 41.952 87.08 40.256C87.08 38.592 86.456 37.376 85.208 36.608C83.96 35.808 82.168 35.408 79.832 35.408H69.272V30.56H78.584C80.76 30.56 82.424 30.176 83.576 29.408C84.76 28.64 85.352 27.488 85.352 25.952C85.352 24.384 84.76 23.216 83.576 22.448C82.424 21.68 80.76 21.296 78.584 21.296H69.752V45.104ZM109.532 50.336C106.908 50.336 104.572 49.776 102.524 48.656C100.476 47.504 98.8596 45.936 97.6756 43.952C96.4916 41.968 95.8996 39.712 95.8996 37.184C95.8996 34.624 96.4916 32.368 97.6756 30.416C98.8596 28.432 100.476 26.88 102.524 25.76C104.572 24.64 106.908 24.08 109.532 24.08C112.188 24.08 114.54 24.64 116.588 25.76C118.668 26.88 120.284 28.416 121.436 30.368C122.62 32.32 123.212 34.592 123.212 37.184C123.212 39.712 122.62 41.968 121.436 43.952C120.284 45.936 118.668 47.504 116.588 48.656C114.54 49.776 112.188 50.336 109.532 50.336ZM109.532 45.2C111.004 45.2 112.316 44.88 113.468 44.24C114.62 43.6 115.516 42.672 116.156 41.456C116.828 40.24 117.164 38.816 117.164 37.184C117.164 35.52 116.828 34.096 116.156 32.912C115.516 31.696 114.62 30.768 113.468 30.128C112.316 29.488 111.02 29.168 109.58 29.168C108.108 29.168 106.796 29.488 105.644 30.128C104.524 30.768 103.628 31.696 102.956 32.912C102.284 34.096 101.948 35.52 101.948 37.184C101.948 38.816 102.284 40.24 102.956 41.456C103.628 42.672 104.524 43.6 105.644 44.24C106.796 44.88 108.092 45.2 109.532 45.2ZM142.973 50V44.816L142.637 43.712V34.64C142.637 32.88 142.109 31.52 141.053 30.56C139.997 29.568 138.397 29.072 136.253 29.072C134.813 29.072 133.389 29.296 131.981 29.744C130.605 30.192 129.437 30.816 128.477 31.616L126.125 27.248C127.501 26.192 129.133 25.408 131.021 24.896C132.941 24.352 134.925 24.08 136.973 24.08C140.685 24.08 143.549 24.976 145.565 26.768C147.613 28.528 148.637 31.264 148.637 34.976V50H142.973ZM134.909 50.336C132.989 50.336 131.309 50.016 129.869 49.376C128.429 48.704 127.309 47.792 126.509 46.64C125.741 45.456 125.357 44.128 125.357 42.656C125.357 41.216 125.693 39.92 126.365 38.768C127.069 37.616 128.205 36.704 129.773 36.032C131.341 35.36 133.421 35.024 136.013 35.024H143.453V39.008H136.445C134.397 39.008 133.021 39.344 132.317 40.016C131.613 40.656 131.261 41.456 131.261 42.416C131.261 43.504 131.693 44.368 132.557 45.008C133.421 45.648 134.621 45.968 136.157 45.968C137.629 45.968 138.941 45.632 140.093 44.96C141.277 44.288 142.125 43.296 142.637 41.984L143.645 45.584C143.069 47.088 142.029 48.256 140.525 49.088C139.053 49.92 137.181 50.336 134.909 50.336ZM154.897 50V24.368H160.609V31.424L159.937 29.36C160.705 27.632 161.905 26.32 163.537 25.424C165.201 24.528 167.265 24.08 169.729 24.08V29.792C169.473 29.728 169.233 29.696 169.009 29.696C168.785 29.664 168.561 29.648 168.337 29.648C166.065 29.648 164.257 30.32 162.913 31.664C161.569 32.976 160.897 34.944 160.897 37.568V50H154.897ZM183.993 50.336C181.529 50.336 179.305 49.792 177.321 48.704C175.369 47.584 173.833 46.048 172.713 44.096C171.593 42.144 171.033 39.84 171.033 37.184C171.033 34.528 171.593 32.224 172.713 30.272C173.833 28.32 175.369 26.8 177.321 25.712C179.305 24.624 181.529 24.08 183.993 24.08C186.137 24.08 188.057 24.56 189.753 25.52C191.449 26.448 192.793 27.872 193.785 29.792C194.777 31.712 195.273 34.176 195.273 37.184C195.273 40.16 194.793 42.624 193.833 44.576C192.873 46.496 191.545 47.936 189.849 48.896C188.153 49.856 186.201 50.336 183.993 50.336ZM184.713 45.2C186.153 45.2 187.433 44.88 188.553 44.24C189.705 43.6 190.617 42.672 191.289 41.456C191.993 40.24 192.345 38.816 192.345 37.184C192.345 35.52 191.993 34.096 191.289 32.912C190.617 31.696 189.705 30.768 188.553 30.128C187.433 29.488 186.153 29.168 184.713 29.168C183.273 29.168 181.977 29.488 180.825 30.128C179.705 30.768 178.793 31.696 178.089 32.912C177.417 34.096 177.081 35.52 177.081 37.184C177.081 38.816 177.417 40.24 178.089 41.456C178.793 42.672 179.705 43.6 180.825 44.24C181.977 44.88 183.273 45.2 184.713 45.2ZM192.489 50V43.952L192.729 37.136L192.249 30.32V14.384H198.201V50H192.489ZM212.578 50.336C210.434 50.336 208.37 50.064 206.386 49.52C204.434 48.944 202.882 48.256 201.73 47.456L204.034 42.896C205.186 43.632 206.562 44.24 208.162 44.72C209.762 45.2 211.362 45.44 212.962 45.44C214.85 45.44 216.21 45.184 217.042 44.672C217.906 44.16 218.338 43.472 218.338 42.608C218.338 41.904 218.05 41.376 217.474 41.024C216.898 40.64 216.146 40.352 215.218 40.16C214.29 39.968 213.25 39.792 212.098 39.632C210.978 39.472 209.842 39.264 208.69 39.008C207.57 38.72 206.546 38.32 205.618 37.808C204.69 37.264 203.938 36.544 203.362 35.648C202.786 34.752 202.498 33.568 202.498 32.096C202.498 30.464 202.962 29.056 203.89 27.872C204.818 26.656 206.114 25.728 207.778 25.088C209.474 24.416 211.474 24.08 213.778 24.08C215.506 24.08 217.25 24.272 219.01 24.656C220.77 25.04 222.226 25.584 223.378 26.288L221.074 30.848C219.858 30.112 218.626 29.616 217.378 29.36C216.162 29.072 214.946 28.928 213.73 28.928C211.906 28.928 210.546 29.2 209.65 29.744C208.786 30.288 208.354 30.976 208.354 31.808C208.354 32.576 208.642 33.152 209.218 33.536C209.794 33.92 210.546 34.224 211.474 34.448C212.402 34.672 213.426 34.864 214.546 35.024C215.698 35.152 216.834 35.36 217.954 35.648C219.074 35.936 220.098 36.336 221.026 36.848C221.986 37.328 222.754 38.016 223.33 38.912C223.906 39.808 224.194 40.976 224.194 42.416C224.194 44.016 223.714 45.408 222.754 46.592C221.826 47.776 220.498 48.704 218.77 49.376C217.042 50.016 214.978 50.336 212.578 50.336Z" fill="#2F1D82"/>
<rect y="20" width="30" height="30" fill="#5030E5"/>
<line x1="45" x2="45" y2="30" stroke="#5030E5" stroke-opacity="0.4" stroke-width="10"/>
<line x1="20" y1="5" x2="40" y2="5" stroke="#5030E5" stroke-opacity="0.4" stroke-width="10"/>
<line x1="35" y1="10" x2="35" y2="40" stroke="#5030E5" stroke-opacity="0.6" stroke-width="10"/>
<line x1="10" y1="15" x2="30" y2="15" stroke="#5030E5" stroke-opacity="0.6" stroke-width="10"/>
</svg>
