<svg width="679" height="159" viewBox="0 0 679 159" fill="none" xmlns="http://www.w3.org/2000/svg">
<path d="M180.536 150V49.2H227.768C239.864 49.2 249.08 51.6 255.416 56.4C261.752 61.104 264.92 67.44 264.92 75.408C264.92 80.784 263.672 85.392 261.176 89.232C258.68 92.976 255.32 95.904 251.096 98.016C246.968 100.032 242.456 101.04 237.56 101.04L240.152 95.856C245.816 95.856 250.904 96.912 255.416 99.024C259.928 101.04 263.48 104.016 266.072 107.952C268.76 111.888 270.104 116.784 270.104 122.64C270.104 131.28 266.792 138 260.168 142.8C253.544 147.6 243.704 150 230.648 150H180.536ZM199.256 135.312H229.496C236.504 135.312 241.88 134.16 245.624 131.856C249.368 129.552 251.24 125.856 251.24 120.768C251.24 115.776 249.368 112.128 245.624 109.824C241.88 107.424 236.504 106.224 229.496 106.224H197.816V91.68H225.752C232.28 91.68 237.272 90.528 240.728 88.224C244.28 85.92 246.056 82.464 246.056 77.856C246.056 73.152 244.28 69.648 240.728 67.344C237.272 65.04 232.28 63.888 225.752 63.888H199.256V135.312ZM318.595 151.008C310.723 151.008 303.715 149.328 297.571 145.968C291.427 142.512 286.579 137.808 283.027 131.856C279.475 125.904 277.699 119.136 277.699 111.552C277.699 103.872 279.475 97.104 283.027 91.248C286.579 85.296 291.427 80.64 297.571 77.28C303.715 73.92 310.723 72.24 318.595 72.24C326.563 72.24 333.619 73.92 339.763 77.28C346.003 80.64 350.851 85.248 354.307 91.104C357.859 96.96 359.635 103.776 359.635 111.552C359.635 119.136 357.859 125.904 354.307 131.856C350.851 137.808 346.003 142.512 339.763 145.968C333.619 149.328 326.563 151.008 318.595 151.008ZM318.595 135.6C323.011 135.6 326.947 134.64 330.403 132.72C333.859 130.8 336.547 128.016 338.467 124.368C340.483 120.72 341.491 116.448 341.491 111.552C341.491 106.56 340.483 102.288 338.467 98.736C336.547 95.088 333.859 92.304 330.403 90.384C326.947 88.464 323.059 87.504 318.739 87.504C314.323 87.504 310.387 88.464 306.931 90.384C303.571 92.304 300.883 95.088 298.867 98.736C296.851 102.288 295.843 106.56 295.843 111.552C295.843 116.448 296.851 120.72 298.867 124.368C300.883 128.016 303.571 130.8 306.931 132.72C310.387 134.64 314.275 135.6 318.595 135.6ZM418.919 150V134.448L417.911 131.136V103.92C417.911 98.64 416.327 94.56 413.159 91.68C409.991 88.704 405.191 87.216 398.759 87.216C394.439 87.216 390.167 87.888 385.943 89.232C381.815 90.576 378.311 92.448 375.431 94.848L368.375 81.744C372.503 78.576 377.399 76.224 383.063 74.688C388.823 73.056 394.775 72.24 400.919 72.24C412.055 72.24 420.647 74.928 426.695 80.304C432.839 85.584 435.911 93.792 435.911 104.928V150H418.919ZM394.727 151.008C388.967 151.008 383.927 150.048 379.607 148.128C375.287 146.112 371.927 143.376 369.527 139.92C367.223 136.368 366.071 132.384 366.071 127.968C366.071 123.648 367.079 119.76 369.095 116.304C371.207 112.848 374.615 110.112 379.319 108.096C384.023 106.08 390.263 105.072 398.039 105.072H420.359V117.024H399.335C393.191 117.024 389.063 118.032 386.951 120.048C384.839 121.968 383.783 124.368 383.783 127.248C383.783 130.512 385.079 133.104 387.671 135.024C390.263 136.944 393.863 137.904 398.471 137.904C402.887 137.904 406.823 136.896 410.279 134.88C413.831 132.864 416.375 129.888 417.911 125.952L420.935 136.752C419.207 141.264 416.087 144.768 411.575 147.264C407.159 149.76 401.543 151.008 394.727 151.008ZM454.692 150V73.104H471.828V94.272L469.812 88.08C472.116 82.896 475.716 78.96 480.612 76.272C485.604 73.584 491.796 72.24 499.188 72.24V89.376C498.42 89.184 497.7 89.088 497.028 89.088C496.356 88.992 495.684 88.944 495.012 88.944C488.196 88.944 482.772 90.96 478.74 94.992C474.708 98.928 472.692 104.832 472.692 112.704V150H454.692ZM541.978 151.008C534.586 151.008 527.914 149.376 521.962 146.112C516.106 142.752 511.498 138.144 508.138 132.288C504.778 126.432 503.098 119.52 503.098 111.552C503.098 103.584 504.778 96.672 508.138 90.816C511.498 84.96 516.106 80.4 521.962 77.136C527.914 73.872 534.586 72.24 541.978 72.24C548.41 72.24 554.17 73.68 559.258 76.56C564.346 79.344 568.378 83.616 571.354 89.376C574.33 95.136 575.818 102.528 575.818 111.552C575.818 120.48 574.378 127.872 571.498 133.728C568.618 139.488 564.634 143.808 559.546 146.688C554.458 149.568 548.602 151.008 541.978 151.008ZM544.138 135.6C548.458 135.6 552.298 134.64 555.658 132.72C559.114 130.8 561.85 128.016 563.866 124.368C565.978 120.72 567.034 116.448 567.034 111.552C567.034 106.56 565.978 102.288 563.866 98.736C561.85 95.088 559.114 92.304 555.658 90.384C552.298 88.464 548.458 87.504 544.138 87.504C539.818 87.504 535.93 88.464 532.474 90.384C529.114 92.304 526.378 95.088 524.266 98.736C522.25 102.288 521.242 106.56 521.242 111.552C521.242 116.448 522.25 120.72 524.266 124.368C526.378 128.016 529.114 130.8 532.474 132.72C535.93 134.64 539.818 135.6 544.138 135.6ZM567.466 150V131.856L568.186 111.408L566.746 90.96V43.152H584.602V150H567.466ZM627.734 151.008C621.302 151.008 615.11 150.192 609.158 148.56C603.302 146.832 598.646 144.768 595.19 142.368L602.102 128.688C605.558 130.896 609.686 132.72 614.486 134.16C619.286 135.6 624.086 136.32 628.886 136.32C634.55 136.32 638.63 135.552 641.126 134.016C643.718 132.48 645.014 130.416 645.014 127.824C645.014 125.712 644.15 124.128 642.422 123.072C640.694 121.92 638.438 121.056 635.654 120.48C632.87 119.904 629.75 119.376 626.294 118.896C622.934 118.416 619.526 117.792 616.07 117.024C612.71 116.16 609.638 114.96 606.854 113.424C604.07 111.792 601.814 109.632 600.086 106.944C598.358 104.256 597.494 100.704 597.494 96.288C597.494 91.392 598.886 87.168 601.67 83.616C604.454 79.968 608.342 77.184 613.334 75.264C618.422 73.248 624.422 72.24 631.334 72.24C636.518 72.24 641.75 72.816 647.03 73.968C652.31 75.12 656.678 76.752 660.134 78.864L653.222 92.544C649.574 90.336 645.878 88.848 642.134 88.08C638.486 87.216 634.838 86.784 631.19 86.784C625.718 86.784 621.638 87.6 618.95 89.232C616.358 90.864 615.062 92.928 615.062 95.424C615.062 97.728 615.926 99.456 617.654 100.608C619.382 101.76 621.638 102.672 624.422 103.344C627.206 104.016 630.278 104.592 633.638 105.072C637.094 105.456 640.502 106.08 643.862 106.944C647.222 107.808 650.294 109.008 653.078 110.544C655.958 111.984 658.262 114.048 659.99 116.736C661.718 119.424 662.582 122.928 662.582 127.248C662.582 132.048 661.142 136.224 658.262 139.776C655.478 143.328 651.494 146.112 646.31 148.128C641.126 150.048 634.934 151.008 627.734 151.008Z" fill="#2F1D82"/>
<rect y="60" width="90" height="90" fill="#5030E5"/>
<line x1="105" y1="30" x2="105" y2="120" stroke="#5030E5" stroke-opacity="0.6" stroke-width="30"/>
<line x1="30" y1="45" x2="90" y2="45" stroke="#5030E5" stroke-opacity="0.6" stroke-width="30"/>
<line x1="135" x2="135" y2="90" stroke="#5030E5" stroke-opacity="0.4" stroke-width="30"/>
<line x1="60" y1="15" x2="120" y2="15" stroke="#5030E5" stroke-opacity="0.4" stroke-width="30"/>
</svg>
